# xmcd
#
# Track frame offsets: 
#        150
#        24405
#        41624
#        60931
#        88578
#        106053
#        124564
#        145557
#        158699
#        172740
#        183535
#        196381
#        209744
#        227716
#        246541
#        264095
#        288637
#        304177
#        324401
#        340183
#
# Disc length: 4755 seconds
#
# Revision: 0
# Processed by: cddbd v1.5.2PL0 Copyright (c) Steve Scherf et al.
# Submitted via: ExactAudioCopy v0.95b3
#
DISCID=10129114
DTITLE=Diana Ross  - The Definitive Collection (2006)  FLAC
DYEAR=1900
DGENRE=
TTITLE0=I'm Coming Out
TTITLE1=Love Hangover
TTITLE2=Missing You
TTITLE3=Mirror, Mirror
TTITLE4=Touch Me In The Morning
TTITLE5=Upside Down
TTITLE6=Muscles
TTITLE7=Why Do Fools Fall in Love
TTITLE8=Reach Out and Touch (Somebody's Hand)
TTITLE9=Good Morning Heartache
TTITLE10=Last Time I Saw Him
TTITLE11=My Mistake (Was to Love You) [Marvin Gaye]
TTITLE12=It's My Turn
TTITLE13=Ain't No Mountain High Enough
TTITLE14=Boss
TTITLE15=Swept Away
TTITLE16=Theme from Mahogany (Do You Know Where You're Going To)
TTITLE17=Endless Love [Lionel Richie]
TTITLE18=What a Diff'rence a Day Makes
TTITLE19=Remember Me
EXTD=
EXTT0=
EXTT1=
EXTT2=
EXTT3=
EXTT4=
EXTT5=
EXTT6=
EXTT7=
EXTT8=
EXTT9=
EXTT10=
EXTT11=
EXTT12=
EXTT13=
EXTT14=
EXTT15=
EXTT16=
EXTT17=
EXTT18=
EXTT19=
PLAYORDER=
